<svg xmlns="http://www.w3.org/2000/svg" width="900" height="520">
<rect x="0" y="0" width="100%" height="100%" fill="white"/>
<text x="450.0" y="30" text-anchor="middle" font-size="22" font-family="Arial">Dot Product Runtime by Thread Count</text>
<line x1="85" y1="425" x2="865" y2="425" stroke="black" stroke-width="2"/>
<line x1="85" y1="55" x2="85" y2="425" stroke="black" stroke-width="2"/>
<line x1="85" y1="425.00" x2="865" y2="425.00" stroke="#d8d8d8" stroke-width="1"/>
<text x="75" y="430.00" text-anchor="end" font-size="12" font-family="Arial">0.238</text>
<line x1="85" y1="351.00" x2="865" y2="351.00" stroke="#d8d8d8" stroke-width="1"/>
<text x="75" y="356.00" text-anchor="end" font-size="12" font-family="Arial">0.365</text>
<line x1="85" y1="277.00" x2="865" y2="277.00" stroke="#d8d8d8" stroke-width="1"/>
<text x="75" y="282.00" text-anchor="end" font-size="12" font-family="Arial">0.491</text>
<line x1="85" y1="203.00" x2="865" y2="203.00" stroke="#d8d8d8" stroke-width="1"/>
<text x="75" y="208.00" text-anchor="end" font-size="12" font-family="Arial">0.618</text>
<line x1="85" y1="129.00" x2="865" y2="129.00" stroke="#d8d8d8" stroke-width="1"/>
<text x="75" y="134.00" text-anchor="end" font-size="12" font-family="Arial">0.745</text>
<line x1="85" y1="55.00" x2="865" y2="55.00" stroke="#d8d8d8" stroke-width="1"/>
<text x="75" y="60.00" text-anchor="end" font-size="12" font-family="Arial">0.871</text>
<line x1="85.00" y1="55" x2="85.00" y2="425" stroke="#efefef" stroke-width="1"/>
<text x="85.00" y="450" text-anchor="middle" font-size="12" font-family="Arial">1</text>
<line x1="110.16" y1="55" x2="110.16" y2="425" stroke="#efefef" stroke-width="1"/>
<text x="110.16" y="450" text-anchor="middle" font-size="12" font-family="Arial">2</text>
<line x1="160.48" y1="55" x2="160.48" y2="425" stroke="#efefef" stroke-width="1"/>
<text x="160.48" y="450" text-anchor="middle" font-size="12" font-family="Arial">4</text>
<line x1="210.81" y1="55" x2="210.81" y2="425" stroke="#efefef" stroke-width="1"/>
<text x="210.81" y="450" text-anchor="middle" font-size="12" font-family="Arial">6</text>
<line x1="261.13" y1="55" x2="261.13" y2="425" stroke="#efefef" stroke-width="1"/>
<text x="261.13" y="450" text-anchor="middle" font-size="12" font-family="Arial">8</text>
<line x1="311.45" y1="55" x2="311.45" y2="425" stroke="#efefef" stroke-width="1"/>
<text x="311.45" y="450" text-anchor="middle" font-size="12" font-family="Arial">10</text>
<line x1="361.77" y1="55" x2="361.77" y2="425" stroke="#efefef" stroke-width="1"/>
<text x="361.77" y="450" text-anchor="middle" font-size="12" font-family="Arial">12</text>
<line x1="462.42" y1="55" x2="462.42" y2="425" stroke="#efefef" stroke-width="1"/>
<text x="462.42" y="450" text-anchor="middle" font-size="12" font-family="Arial">16</text>
<line x1="865.00" y1="55" x2="865.00" y2="425" stroke="#efefef" stroke-width="1"/>
<text x="865.00" y="450" text-anchor="middle" font-size="12" font-family="Arial">32</text>
<polyline fill="none" stroke="#2563eb" stroke-width="3" points="85.00,374.21 110.16,394.17 160.48,387.25 210.81,383.59 261.13,360.29 311.45,348.69 361.77,321.46 462.42,273.45 865.00,85.83"/>
<circle cx="85.00" cy="374.21" r="4.5" fill="#1d4ed8"/>
<text x="85.00" y="364.21" text-anchor="middle" font-size="11" font-family="Arial">0.325s</text>
<circle cx="110.16" cy="394.17" r="4.5" fill="#1d4ed8"/>
<text x="110.16" y="384.17" text-anchor="middle" font-size="11" font-family="Arial">0.291s</text>
<circle cx="160.48" cy="387.25" r="4.5" fill="#1d4ed8"/>
<text x="160.48" y="377.25" text-anchor="middle" font-size="11" font-family="Arial">0.303s</text>
<circle cx="210.81" cy="383.59" r="4.5" fill="#1d4ed8"/>
<text x="210.81" y="373.59" text-anchor="middle" font-size="11" font-family="Arial">0.309s</text>
<circle cx="261.13" cy="360.29" r="4.5" fill="#1d4ed8"/>
<text x="261.13" y="350.29" text-anchor="middle" font-size="11" font-family="Arial">0.349s</text>
<circle cx="311.45" cy="348.69" r="4.5" fill="#1d4ed8"/>
<text x="311.45" y="338.69" text-anchor="middle" font-size="11" font-family="Arial">0.369s</text>
<circle cx="361.77" cy="321.46" r="4.5" fill="#1d4ed8"/>
<text x="361.77" y="311.46" text-anchor="middle" font-size="11" font-family="Arial">0.415s</text>
<circle cx="462.42" cy="273.45" r="4.5" fill="#1d4ed8"/>
<text x="462.42" y="263.45" text-anchor="middle" font-size="11" font-family="Arial">0.497s</text>
<circle cx="865.00" cy="85.83" r="4.5" fill="#1d4ed8"/>
<text x="865.00" y="75.83" text-anchor="middle" font-size="11" font-family="Arial">0.819s</text>
<text x="475.0" y="492" text-anchor="middle" font-size="14" font-family="Arial">Threads</text>
<text x="22" y="240.0" transform="rotate(-90 22 240.0)" text-anchor="middle" font-size="14" font-family="Arial">Time (seconds)</text>
</svg>